<?xml version="1.0" encoding="UTF-8" standalone="no"?>
<!-- Created with Inkscape (http://www.inkscape.org/) -->

<svg
   xmlns:dc="http://purl.org/dc/elements/1.1/"
   xmlns:cc="http://creativecommons.org/ns#"
   xmlns:rdf="http://www.w3.org/1999/02/22-rdf-syntax-ns#"
   xmlns:svg="http://www.w3.org/2000/svg"
   xmlns="http://www.w3.org/2000/svg"
   xmlns:sodipodi="http://sodipodi.sourceforge.net/DTD/sodipodi-0.dtd"
   xmlns:inkscape="http://www.inkscape.org/namespaces/inkscape"
   width="367.14001"
   height="367.13998"
   viewBox="0 0 367.14001 367.13998"
   version="1.1"
   id="svg2216"
   inkscape:version="0.92.3 (2405546, 2018-03-11)"
   sodipodi:docname="circle.svg">
  <defs
     id="defs2210" />
  <sodipodi:namedview
     id="base"
     pagecolor="#ffffff"
     bordercolor="#666666"
     borderopacity="1.0"
     inkscape:pageopacity="0.0"
     inkscape:pageshadow="2"
     inkscape:zoom="1.4"
     inkscape:cx="128.40776"
     inkscape:cy="196.06567"
     inkscape:document-units="px"
     inkscape:current-layer="layer1"
     showgrid="false"
     units="px"
     inkscape:window-width="1280"
     inkscape:window-height="737"
     inkscape:window-x="-8"
     inkscape:window-y="-8"
     inkscape:window-maximized="1"
     fit-margin-top="10"
     fit-margin-left="10"
     fit-margin-bottom="10"
     fit-margin-right="10"
     inkscape:showpageshadow="false"
     scale-x="1" />
  <metadata
     id="metadata2213">
    <rdf:RDF>
      <cc:Work
         rdf:about="">
        <dc:format>image/svg+xml</dc:format>
        <dc:type
           rdf:resource="http://purl.org/dc/dcmitype/StillImage" />
        <dc:title></dc:title>
      </cc:Work>
    </rdf:RDF>
  </metadata>
  <g
     inkscape:label="Layer 1"
     inkscape:groupmode="layer"
     id="layer1"
     transform="translate(283.10502,-116.23671)">
    
<g
       aria-label="c"
       style="font-style:normal;font-variant:normal;font-weight:normal;font-stretch:normal;font-size:5.33333349px;line-height:1.25;font-family:'Open Sans';-inkscape-font-specification:'Open Sans, Normal';font-variant-ligatures:normal;font-variant-caps:normal;font-variant-numeric:normal;font-feature-settings:normal;text-align:start;letter-spacing:0px;word-spacing:0px;writing-mode:lr-tb;text-anchor:start;fill:#000000;fill-opacity:1;stroke:none"
       id="text824"
       transform="translate(-17.428572)">
      <path
         d="m -125.76082,255.93247 c 5.92448,1.26953 17.02008,1.13297 29.715393,-1.12398 -0.375121,-30.32769 0.635031,-64.90468 0.36086,-94.80919 -39.505853,2.89027 -77.415833,29.88926 -95.897893,51.83401 -17.63237,22.85156 -28.19358,47.69616 -30.16841,76.04903 -2.39801,36.67535 9.07722,67.41273 26.56854,94.35501 15.65755,24.12109 57.42343,52.95247 98.511903,55.95843 1.269533,-36.11111 0.108819,-64.9022 -1.160714,-89.58753 -9.874129,-1.55165 -19.748259,-1.55165 -29.622389,0 -0.42318,2.53907 -0.28212,8.46355 0.42318,17.77344 0.56423,7.19401 -1.49907,20.13378 -3.33287,22.39072 -24.52009,-3.75776 -56.68713,-39.45886 -60.07255,-61.74619 -5.07813,-32.58463 -1.91779,-59.36787 11.62388,-83.20685 5.78342,-10.15625 26.12572,-32.58054 52.8485,-37.34648 0.98741,2.11588 -0.92591,25.55007 -1.49014,33.59044 -0.42318,7.89931 0.14106,13.18902 1.69271,15.86914 z"
         style="font-style:normal;font-variant:normal;font-weight:normal;font-stretch:normal;font-size:433.33334351px;font-family:'MONOGRAMOS left';-inkscape-font-specification:'MONOGRAMOS left';fill:black;fill-opacity:1"
         id="path825"
         inkscape:connector-curvature="0"
         sodipodi:nodetypes="cccccccccccccccc" />
    </g>



<g
       aria-label="a"
       style="font-style:normal;font-variant:normal;font-weight:normal;font-stretch:normal;font-size:5.33333349px;line-height:1.25;font-family:'Open Sans';-inkscape-font-specification:'Open Sans, Normal';font-variant-ligatures:normal;font-variant-caps:normal;font-variant-numeric:normal;font-feature-settings:normal;text-align:start;letter-spacing:0px;word-spacing:0px;writing-mode:lr-tb;text-anchor:start;fill:#ffffff;fill-opacity:1;stroke:none"
       id="text828"
       transform="translate(33.571438)">
      <path
         d="m -89.229973,284.26496 c -1.41059,-20.73568 -1.484557,-64.19305 -0.07397,-84.50555 27.99955,8.52971 64.76721,55.10604 62.011747,83.87078 -2.680122,-0.28211 -9.050255,-0.21158 -15.53897,0.21159 -6.770833,0.42318 -44.141865,0.56424 -46.39881,0.42318 z M -120.8692,160.59076 c 0,16.36285 0.46521,64.78205 0.32412,139.54334 -0.14106,55.85938 -0.49029,102.83657 0.21501,137.39603 11.99001,-1.71434 21.359074,-2.6438 31.263896,-7.08152 0.282118,-6.06554 -0.728035,-35.87549 -1.010153,-64.93365 -0.282118,-21.72309 0.282118,-38.65017 1.692708,-50.78125 -0.705295,0 37.018385,-0.0705 47.456753,-0.21159 6.911893,-0.14106 11.425782,0.77582 13.541667,2.75065 0.705295,6.34766 -1.057943,13.89432 -5.289714,22.63998 -5.078125,10.72049 -7.899305,17.56185 -8.463541,20.52409 -0.270781,15.43986 -0.661077,27.28082 -2.525381,43.03437 4.231771,-1.55165 10.631746,-8.4567 17.684697,-18.18977 C -8.4650786,363.83362 1.6024319,337.16209 3.7183174,307.5397 6.2573799,272.98024 -3.7097582,243.15974 -22.611668,215.93535 -51.593796,181.84287 -75.137764,166.9133 -120.8692,160.59076 Z"
         style="font-style:normal;font-variant:normal;font-weight:normal;font-stretch:normal;font-size:433.33334351px;font-family:'MONOGRAMOS right';-inkscape-font-specification:'MONOGRAMOS right';fill:black;fill-opacity:1"
         id="path825"
         inkscape:connector-curvature="0"
         sodipodi:nodetypes="cccccccccccccccccccc" />
    </g>


  </g>
</svg>
